M48
; DRILL file {KiCad 6.0.5-a6ca702e91~116~ubuntu20.04.1} date Sat 04 Jun 2022 21:36:18 -05
; FORMAT={-:-/ absolute / metric / decimal}
; #@! TF.CreationDate,2022-06-04T21:36:18-05:00
; #@! TF.GenerationSoftware,Kicad,Pcbnew,6.0.5-a6ca702e91~116~ubuntu20.04.1
; #@! TF.FileFunction,Plated,1,2,PTH
FMAT,2
METRIC
; #@! TA.AperFunction,Plated,PTH,ViaDrill
T1C0.400
; #@! TA.AperFunction,Plated,PTH,ComponentDrill
T2C0.650
; #@! TA.AperFunction,Plated,PTH,ComponentDrill
T3C0.760
; #@! TA.AperFunction,Plated,PTH,ComponentDrill
T4C1.000
%
G90
G05
T1
X132.5Y-150.8
X133.5Y-140.8
X133.59Y-105.93
X134.19Y-83.38
X135.2Y-153.2
X136.8Y-153.2
X137.19Y-76.08
X137.34Y-104.43
X137.44Y-102.48
X138.3Y-138.8
X138.99Y-89.38
X139.24Y-113.42
X139.3Y-145.0
X139.4Y-147.8
X140.8Y-146.75
X141.09Y-94.11
X141.19Y-76.08
X141.79Y-86.28
X141.79Y-92.28
X142.2Y-96.55
X142.23Y-95.4
X144.4Y-141.9
X144.49Y-71.38
X144.54Y-67.93
X144.68Y-144.92
X146.089Y-85.0
X146.29Y-131.38
X146.39Y-146.78
X146.74Y-63.28
X147.19Y-83.08
X147.29Y-152.55
X147.79Y-131.38
X148.84Y-86.83
X149.29Y-131.38
X150.79Y-131.38
X151.8Y-104.3
X152.21Y-139.53
X152.71Y-80.01
X153.81Y-80.13
X154.84Y-101.08
X155.59Y-84.63
X156.69Y-89.48
X156.99Y-79.13
X157.51Y-80.08
X157.89Y-133.78
X158.09Y-79.13
X158.59Y-132.88
X159.19Y-133.78
X160.14Y-65.52
X163.29Y-110.56
X164.03Y-105.79
X164.54Y-101.34
T2
X159.87Y-99.68
X161.14Y-99.68
T3
X131.718Y-71.1
X132.987Y-73.64
X134.257Y-71.1
X135.528Y-73.64
X136.797Y-71.1
X138.067Y-73.64
X139.338Y-71.1
X140.607Y-73.64
T4
X142.38Y-77.9
X144.92Y-77.9
X147.46Y-77.9
X150.0Y-77.9
X150.38Y-63.1
X152.92Y-63.1
X155.46Y-63.1
X158.0Y-63.1
X161.875Y-77.975
X161.875Y-80.515
X161.875Y-83.055
T0
M30
