%TF.GenerationSoftware,KiCad,Pcbnew,6.0.5-a6ca702e91~116~ubuntu20.04.1*%
%TF.CreationDate,2022-06-04T21:36:06-05:00*%
%TF.ProjectId,gpsOled,6770734f-6c65-4642-9e6b-696361645f70,rev?*%
%TF.SameCoordinates,Original*%
%TF.FileFunction,Soldermask,Bot*%
%TF.FilePolarity,Negative*%
%FSLAX46Y46*%
G04 Gerber Fmt 4.6, Leading zero omitted, Abs format (unit mm)*
G04 Created by KiCad (PCBNEW 6.0.5-a6ca702e91~116~ubuntu20.04.1) date 2022-06-04 21:36:06*
%MOMM*%
%LPD*%
G01*
G04 APERTURE LIST*
G04 Aperture macros list*
%AMRoundRect*
0 Rectangle with rounded corners*
0 $1 Rounding radius*
0 $2 $3 $4 $5 $6 $7 $8 $9 X,Y pos of 4 corners*
0 Add a 4 corners polygon primitive as box body*
4,1,4,$2,$3,$4,$5,$6,$7,$8,$9,$2,$3,0*
0 Add four circle primitives for the rounded corners*
1,1,$1+$1,$2,$3*
1,1,$1+$1,$4,$5*
1,1,$1+$1,$6,$7*
1,1,$1+$1,$8,$9*
0 Add four rect primitives between the rounded corners*
20,1,$1+$1,$2,$3,$4,$5,0*
20,1,$1+$1,$4,$5,$6,$7,0*
20,1,$1+$1,$6,$7,$8,$9,0*
20,1,$1+$1,$8,$9,$2,$3,0*%
%AMFreePoly0*
4,1,6,1.000000,0.000000,0.500000,-0.750000,-0.500000,-0.750000,-0.500000,0.750000,0.500000,0.750000,1.000000,0.000000,1.000000,0.000000,$1*%
%AMFreePoly1*
4,1,6,0.500000,-0.750000,-0.650000,-0.750000,-0.150000,0.000000,-0.650000,0.750000,0.500000,0.750000,0.500000,-0.750000,0.500000,-0.750000,$1*%
%AMFreePoly2*
4,1,22,0.500000,-0.750000,0.000000,-0.750000,0.000000,-0.745033,-0.079941,-0.743568,-0.215256,-0.701293,-0.333266,-0.622738,-0.424486,-0.514219,-0.481581,-0.384460,-0.499164,-0.250000,-0.500000,-0.250000,-0.500000,0.250000,-0.499164,0.250000,-0.499963,0.256109,-0.478152,0.396186,-0.417904,0.524511,-0.324060,0.630769,-0.204165,0.706417,-0.067858,0.745374,0.000000,0.744959,0.000000,0.750000,
0.500000,0.750000,0.500000,-0.750000,0.500000,-0.750000,$1*%
%AMFreePoly3*
4,1,20,0.000000,0.744959,0.073905,0.744508,0.209726,0.703889,0.328688,0.626782,0.421226,0.519385,0.479903,0.390333,0.500000,0.250000,0.500000,-0.250000,0.499851,-0.262216,0.476331,-0.402017,0.414519,-0.529596,0.319384,-0.634700,0.198574,-0.708877,0.061801,-0.746166,0.000000,-0.745033,0.000000,-0.750000,-0.500000,-0.750000,-0.500000,0.750000,0.000000,0.750000,0.000000,0.744959,
0.000000,0.744959,$1*%
G04 Aperture macros list end*
%ADD10RoundRect,0.237500X0.237500X-0.250000X0.237500X0.250000X-0.237500X0.250000X-0.237500X-0.250000X0*%
%ADD11FreePoly0,90.000000*%
%ADD12FreePoly1,90.000000*%
%ADD13C,3.200000*%
%ADD14O,1.600000X2.000000*%
%ADD15C,0.900000*%
%ADD16R,1.700000X1.700000*%
%ADD17O,1.700000X1.700000*%
%ADD18RoundRect,0.250000X-0.650000X0.325000X-0.650000X-0.325000X0.650000X-0.325000X0.650000X0.325000X0*%
%ADD19RoundRect,0.150000X0.512500X0.150000X-0.512500X0.150000X-0.512500X-0.150000X0.512500X-0.150000X0*%
%ADD20RoundRect,0.250000X-0.337500X-0.475000X0.337500X-0.475000X0.337500X0.475000X-0.337500X0.475000X0*%
%ADD21RoundRect,0.250000X-0.325000X-0.650000X0.325000X-0.650000X0.325000X0.650000X-0.325000X0.650000X0*%
%ADD22R,1.000000X1.000000*%
%ADD23O,1.000000X1.000000*%
%ADD24RoundRect,0.200000X-0.275000X0.200000X-0.275000X-0.200000X0.275000X-0.200000X0.275000X0.200000X0*%
%ADD25R,0.450000X1.380000*%
%ADD26R,1.650000X1.300000*%
%ADD27R,1.000000X1.900000*%
%ADD28R,1.425000X1.550000*%
%ADD29R,1.800000X1.900000*%
%ADD30RoundRect,0.237500X-0.237500X0.250000X-0.237500X-0.250000X0.237500X-0.250000X0.237500X0.250000X0*%
%ADD31R,7.000000X3.000000*%
%ADD32RoundRect,0.200000X0.200000X0.275000X-0.200000X0.275000X-0.200000X-0.275000X0.200000X-0.275000X0*%
%ADD33RoundRect,0.237500X0.237500X-0.300000X0.237500X0.300000X-0.237500X0.300000X-0.237500X-0.300000X0*%
%ADD34FreePoly2,180.000000*%
%ADD35FreePoly3,180.000000*%
%ADD36R,0.900000X1.500000*%
%ADD37R,1.500000X0.900000*%
%ADD38R,1.050000X1.050000*%
%ADD39R,1.500000X1.500000*%
%ADD40C,1.500000*%
%ADD41RoundRect,0.237500X-0.300000X-0.237500X0.300000X-0.237500X0.300000X0.237500X-0.300000X0.237500X0*%
%ADD42R,2.500000X2.300000*%
G04 APERTURE END LIST*
D10*
%TO.C,R14*%
X154440000Y-84592500D03*
X154440000Y-82767500D03*
%TD*%
%TO.C,R13*%
X154440000Y-88042500D03*
X154440000Y-86217500D03*
%TD*%
D11*
%TO.C,JP2*%
X156590000Y-87855000D03*
D12*
X156590000Y-86405000D03*
%TD*%
D13*
%TO.C,H2*%
X129490000Y-155480000D03*
%TD*%
%TO.C,H1*%
X162540000Y-62480000D03*
%TD*%
D14*
%TO.C,J4*%
X142380000Y-77900000D03*
X144920000Y-77900000D03*
X147460000Y-77900000D03*
X150000000Y-77900000D03*
%TD*%
D15*
%TO.C,SW1*%
X164445000Y-92380000D03*
X164445000Y-95380000D03*
%TD*%
D16*
%TO.C,J3*%
X161875000Y-77975000D03*
D17*
X161875000Y-80515000D03*
X161875000Y-83055000D03*
%TD*%
D13*
%TO.C,H3*%
X162490000Y-155480000D03*
%TD*%
D18*
%TO.C,C2*%
X162790000Y-67805000D03*
X162790000Y-70755000D03*
%TD*%
D19*
%TO.C,U1*%
X158527500Y-71730000D03*
X158527500Y-72680000D03*
X158527500Y-73630000D03*
X156252500Y-73630000D03*
X156252500Y-72680000D03*
X156252500Y-71730000D03*
%TD*%
D20*
%TO.C,C15*%
X134152500Y-77090000D03*
X136227500Y-77090000D03*
%TD*%
D21*
%TO.C,C1*%
X155715000Y-76480000D03*
X158665000Y-76480000D03*
%TD*%
D22*
%TO.C,J2*%
X159870000Y-99680000D03*
D23*
X161140000Y-99680000D03*
%TD*%
D24*
%TO.C,R11*%
X160590000Y-71455000D03*
X160590000Y-73105000D03*
%TD*%
D25*
%TO.C,J1*%
X147300000Y-154310000D03*
X146650000Y-154310000D03*
X146000000Y-154310000D03*
X145350000Y-154310000D03*
X144700000Y-154310000D03*
D26*
X142625000Y-156970000D03*
D27*
X144450000Y-156970000D03*
D28*
X148487500Y-154395000D03*
D26*
X149375000Y-156970000D03*
D28*
X143512500Y-154395000D03*
D29*
X147150000Y-156970000D03*
%TD*%
D30*
%TO.C,R10*%
X139590000Y-76967500D03*
X139590000Y-78792500D03*
%TD*%
D31*
%TO.C,L1*%
X149390000Y-73380000D03*
X149390000Y-68380000D03*
%TD*%
D32*
%TO.C,R2*%
X162315000Y-75880000D03*
X160665000Y-75880000D03*
%TD*%
D24*
%TO.C,R1*%
X162390000Y-72555000D03*
X162390000Y-74205000D03*
%TD*%
D33*
%TO.C,C14*%
X137990000Y-78742500D03*
X137990000Y-77017500D03*
%TD*%
D34*
%TO.C,JP1*%
X155960000Y-98740000D03*
D35*
X154660000Y-98740000D03*
%TD*%
D36*
%TO.C,U5*%
X134490000Y-81250000D03*
X135760000Y-81250000D03*
X137030000Y-81250000D03*
X138300000Y-81250000D03*
X139570000Y-81250000D03*
X140840000Y-81250000D03*
X142110000Y-81250000D03*
X143380000Y-81250000D03*
X144650000Y-81250000D03*
X145920000Y-81250000D03*
X147190000Y-81250000D03*
X148460000Y-81250000D03*
X149730000Y-81250000D03*
X151000000Y-81250000D03*
D37*
X152250000Y-84280000D03*
X152250000Y-85550000D03*
X152250000Y-86820000D03*
X152250000Y-88090000D03*
X152250000Y-89360000D03*
X152250000Y-90630000D03*
X152250000Y-91900000D03*
X152250000Y-93170000D03*
X152250000Y-94440000D03*
X152250000Y-95710000D03*
D36*
X151000000Y-98750000D03*
X149730000Y-98750000D03*
X148460000Y-98750000D03*
X147190000Y-98750000D03*
X145920000Y-98750000D03*
X144650000Y-98750000D03*
X143380000Y-98750000D03*
X142110000Y-98750000D03*
X140840000Y-98750000D03*
X139570000Y-98750000D03*
X138300000Y-98750000D03*
X137030000Y-98750000D03*
X135760000Y-98750000D03*
X134490000Y-98750000D03*
D38*
X143355000Y-89320000D03*
X143355000Y-87795000D03*
X143355000Y-90845000D03*
X140305000Y-89320000D03*
X141830000Y-90845000D03*
X141830000Y-89320000D03*
X140305000Y-90845000D03*
X140305000Y-87795000D03*
X141830000Y-87795000D03*
%TD*%
D13*
%TO.C,J5*%
X130447500Y-64750000D03*
X141877500Y-64750000D03*
D39*
X131717500Y-71100000D03*
D40*
X132987500Y-73640000D03*
X134257500Y-71100000D03*
X135527500Y-73640000D03*
X136797500Y-71100000D03*
X138067500Y-73640000D03*
X139337500Y-71100000D03*
X140607500Y-73640000D03*
%TD*%
D41*
%TO.C,C16*%
X134127500Y-78980000D03*
X135852500Y-78980000D03*
%TD*%
D16*
%TO.C,J6*%
X158000000Y-63100000D03*
D17*
X155460000Y-63100000D03*
X152920000Y-63100000D03*
X150380000Y-63100000D03*
%TD*%
D42*
%TO.C,D1*%
X159840000Y-67880000D03*
X155540000Y-67880000D03*
%TD*%
M02*
