%TF.GenerationSoftware,KiCad,Pcbnew,6.0.5-a6ca702e91~116~ubuntu20.04.1*%
%TF.CreationDate,2022-06-04T21:36:06-05:00*%
%TF.ProjectId,gpsOled,6770734f-6c65-4642-9e6b-696361645f70,rev?*%
%TF.SameCoordinates,Original*%
%TF.FileFunction,Soldermask,Top*%
%TF.FilePolarity,Negative*%
%FSLAX46Y46*%
G04 Gerber Fmt 4.6, Leading zero omitted, Abs format (unit mm)*
G04 Created by KiCad (PCBNEW 6.0.5-a6ca702e91~116~ubuntu20.04.1) date 2022-06-04 21:36:06*
%MOMM*%
%LPD*%
G01*
G04 APERTURE LIST*
G04 Aperture macros list*
%AMRoundRect*
0 Rectangle with rounded corners*
0 $1 Rounding radius*
0 $2 $3 $4 $5 $6 $7 $8 $9 X,Y pos of 4 corners*
0 Add a 4 corners polygon primitive as box body*
4,1,4,$2,$3,$4,$5,$6,$7,$8,$9,$2,$3,0*
0 Add four circle primitives for the rounded corners*
1,1,$1+$1,$2,$3*
1,1,$1+$1,$4,$5*
1,1,$1+$1,$6,$7*
1,1,$1+$1,$8,$9*
0 Add four rect primitives between the rounded corners*
20,1,$1+$1,$2,$3,$4,$5,0*
20,1,$1+$1,$4,$5,$6,$7,0*
20,1,$1+$1,$6,$7,$8,$9,0*
20,1,$1+$1,$8,$9,$2,$3,0*%
G04 Aperture macros list end*
%ADD10RoundRect,0.237500X-0.250000X-0.237500X0.250000X-0.237500X0.250000X0.237500X-0.250000X0.237500X0*%
%ADD11RoundRect,0.237500X-0.237500X0.250000X-0.237500X-0.250000X0.237500X-0.250000X0.237500X0.250000X0*%
%ADD12C,3.200000*%
%ADD13R,2.100000X1.400000*%
%ADD14RoundRect,0.150000X-0.150000X0.512500X-0.150000X-0.512500X0.150000X-0.512500X0.150000X0.512500X0*%
%ADD15RoundRect,0.225000X0.225000X0.250000X-0.225000X0.250000X-0.225000X-0.250000X0.225000X-0.250000X0*%
%ADD16RoundRect,0.200000X-0.275000X0.200000X-0.275000X-0.200000X0.275000X-0.200000X0.275000X0.200000X0*%
%ADD17RoundRect,0.150000X0.512500X0.150000X-0.512500X0.150000X-0.512500X-0.150000X0.512500X-0.150000X0*%
%ADD18RoundRect,0.225000X0.250000X-0.225000X0.250000X0.225000X-0.250000X0.225000X-0.250000X-0.225000X0*%
%ADD19R,3.000000X7.000000*%
%ADD20RoundRect,0.100000X0.637500X0.100000X-0.637500X0.100000X-0.637500X-0.100000X0.637500X-0.100000X0*%
%ADD21O,1.600000X2.000000*%
%ADD22RoundRect,0.237500X0.237500X-0.287500X0.237500X0.287500X-0.237500X0.287500X-0.237500X-0.287500X0*%
%ADD23R,1.400000X2.100000*%
%ADD24RoundRect,0.250000X0.350000X0.450000X-0.350000X0.450000X-0.350000X-0.450000X0.350000X-0.450000X0*%
%ADD25RoundRect,0.225000X-0.250000X0.225000X-0.250000X-0.225000X0.250000X-0.225000X0.250000X0.225000X0*%
%ADD26R,2.300000X2.500000*%
%ADD27RoundRect,0.250000X0.325000X0.650000X-0.325000X0.650000X-0.325000X-0.650000X0.325000X-0.650000X0*%
%ADD28R,0.800000X1.000000*%
%ADD29C,0.900000*%
%ADD30R,1.500000X0.700000*%
%ADD31RoundRect,0.137500X0.137500X-0.662500X0.137500X0.662500X-0.137500X0.662500X-0.137500X-0.662500X0*%
%ADD32RoundRect,0.200000X0.200000X0.275000X-0.200000X0.275000X-0.200000X-0.275000X0.200000X-0.275000X0*%
%ADD33R,1.500000X2.000000*%
%ADD34R,3.800000X2.000000*%
%ADD35R,1.700000X1.700000*%
%ADD36O,1.700000X1.700000*%
%ADD37RoundRect,0.225000X-0.225000X-0.250000X0.225000X-0.250000X0.225000X0.250000X-0.225000X0.250000X0*%
%ADD38RoundRect,0.150000X-0.150000X0.675000X-0.150000X-0.675000X0.150000X-0.675000X0.150000X0.675000X0*%
%ADD39RoundRect,0.250000X-0.325000X-0.650000X0.325000X-0.650000X0.325000X0.650000X-0.325000X0.650000X0*%
%ADD40R,1.000000X1.000000*%
%ADD41O,1.000000X1.000000*%
%ADD42R,1.500000X1.500000*%
%ADD43C,1.500000*%
G04 APERTURE END LIST*
D10*
%TO.C,R18*%
X138427500Y-103830000D03*
X140252500Y-103830000D03*
%TD*%
%TO.C,R17*%
X134427500Y-104430000D03*
X136252500Y-104430000D03*
%TD*%
%TO.C,R16*%
X134427500Y-102830000D03*
X136252500Y-102830000D03*
%TD*%
D11*
%TO.C,R15*%
X154840000Y-102467500D03*
X154840000Y-104292500D03*
%TD*%
D12*
%TO.C,H2*%
X129490000Y-155480000D03*
%TD*%
D13*
%TO.C,SW5*%
X140240000Y-107130000D03*
X140240000Y-111630000D03*
X149340000Y-111630000D03*
X149340000Y-107130000D03*
%TD*%
D14*
%TO.C,U3*%
X142450000Y-139762500D03*
X141500000Y-139762500D03*
X140550000Y-139762500D03*
X140550000Y-142037500D03*
X141500000Y-142037500D03*
X142450000Y-142037500D03*
%TD*%
D15*
%TO.C,C12*%
X146665000Y-64730000D03*
X145115000Y-64730000D03*
%TD*%
D16*
%TO.C,R9*%
X160170000Y-136805000D03*
X160170000Y-138455000D03*
%TD*%
D13*
%TO.C,SW3*%
X140240000Y-115130000D03*
X140240000Y-119630000D03*
X149340000Y-119630000D03*
X149340000Y-115130000D03*
%TD*%
D17*
%TO.C,U6*%
X157767500Y-141540000D03*
X157767500Y-140590000D03*
X157767500Y-139640000D03*
X155492500Y-139640000D03*
X155492500Y-140590000D03*
X155492500Y-141540000D03*
%TD*%
D15*
%TO.C,C13*%
X153715000Y-74930000D03*
X152165000Y-74930000D03*
%TD*%
D18*
%TO.C,C4*%
X148600000Y-146575000D03*
X148600000Y-145025000D03*
%TD*%
D19*
%TO.C,L2*%
X153100000Y-147800000D03*
X158100000Y-147800000D03*
%TD*%
D20*
%TO.C,Q1*%
X146462500Y-145875000D03*
X146462500Y-145225000D03*
X146462500Y-144575000D03*
X146462500Y-143925000D03*
X140737500Y-143925000D03*
X140737500Y-144575000D03*
X140737500Y-145225000D03*
X140737500Y-145875000D03*
%TD*%
D16*
%TO.C,R12*%
X161890000Y-136815000D03*
X161890000Y-138465000D03*
%TD*%
D12*
%TO.C,H1*%
X162540000Y-62480000D03*
%TD*%
D11*
%TO.C,C6*%
X149550000Y-141587500D03*
X149550000Y-143412500D03*
%TD*%
D21*
%TO.C,J4*%
X142380000Y-77900000D03*
X144920000Y-77900000D03*
X147460000Y-77900000D03*
X150000000Y-77900000D03*
%TD*%
D22*
%TO.C,D2*%
X164000000Y-108875000D03*
X164000000Y-107125000D03*
%TD*%
D23*
%TO.C,SW2*%
X157040000Y-106830000D03*
X152540000Y-106830000D03*
X152540000Y-115930000D03*
X157040000Y-115930000D03*
%TD*%
D24*
%TO.C,C7*%
X147750000Y-141800000D03*
X145750000Y-141800000D03*
%TD*%
D25*
%TO.C,C3*%
X132420000Y-142765000D03*
X132420000Y-144315000D03*
%TD*%
D26*
%TO.C,D4*%
X162500000Y-143440000D03*
X162500000Y-147740000D03*
%TD*%
D27*
%TO.C,C9*%
X163215000Y-140580000D03*
X160265000Y-140580000D03*
%TD*%
D28*
%TO.C,SW1*%
X163335000Y-90230000D03*
D29*
X164445000Y-92380000D03*
D28*
X165545000Y-97530000D03*
D29*
X164445000Y-95380000D03*
D28*
X163335000Y-97530000D03*
X165545000Y-90230000D03*
D30*
X162685000Y-96130000D03*
X162685000Y-93130000D03*
X162685000Y-91630000D03*
%TD*%
D31*
%TO.C,U7*%
X145495000Y-73080000D03*
X146765000Y-73080000D03*
X148035000Y-73080000D03*
X149305000Y-73080000D03*
X150575000Y-73080000D03*
X151845000Y-73080000D03*
X153115000Y-73080000D03*
X154385000Y-73080000D03*
X154385000Y-66580000D03*
X153115000Y-66580000D03*
X151845000Y-66580000D03*
X150575000Y-66580000D03*
X149305000Y-66580000D03*
X148035000Y-66580000D03*
X146765000Y-66580000D03*
X145495000Y-66580000D03*
%TD*%
D18*
%TO.C,C5*%
X132430000Y-149555000D03*
X132430000Y-148005000D03*
%TD*%
D32*
%TO.C,R7*%
X144525000Y-147800000D03*
X142875000Y-147800000D03*
%TD*%
D16*
%TO.C,R3*%
X135200000Y-150175000D03*
X135200000Y-151825000D03*
%TD*%
D32*
%TO.C,R8*%
X161785000Y-135220000D03*
X160135000Y-135220000D03*
%TD*%
D33*
%TO.C,U4*%
X145650000Y-139400000D03*
X147950000Y-139400000D03*
D34*
X147950000Y-133100000D03*
D33*
X150250000Y-139400000D03*
%TD*%
D35*
%TO.C,J3*%
X161875000Y-77975000D03*
D36*
X161875000Y-80515000D03*
X161875000Y-83055000D03*
%TD*%
D32*
%TO.C,R6*%
X141025000Y-138000000D03*
X139375000Y-138000000D03*
%TD*%
D12*
%TO.C,H3*%
X162490000Y-155480000D03*
%TD*%
D37*
%TO.C,C10*%
X146065000Y-74930000D03*
X147615000Y-74930000D03*
%TD*%
D16*
%TO.C,R4*%
X136800000Y-150175000D03*
X136800000Y-151825000D03*
%TD*%
D10*
%TO.C,R5*%
X135087500Y-140600000D03*
X136912500Y-140600000D03*
%TD*%
D23*
%TO.C,SW4*%
X136040000Y-106830000D03*
X131540000Y-106830000D03*
X131540000Y-115930000D03*
X136040000Y-115930000D03*
%TD*%
D22*
%TO.C,D3*%
X164000000Y-104375000D03*
X164000000Y-102625000D03*
%TD*%
D38*
%TO.C,U2*%
X137905000Y-142675000D03*
X136635000Y-142675000D03*
X135365000Y-142675000D03*
X134095000Y-142675000D03*
X134095000Y-147925000D03*
X135365000Y-147925000D03*
X136635000Y-147925000D03*
X137905000Y-147925000D03*
%TD*%
D39*
%TO.C,C8*%
X155375000Y-136950000D03*
X158325000Y-136950000D03*
%TD*%
D37*
%TO.C,C11*%
X149115000Y-74930000D03*
X150665000Y-74930000D03*
%TD*%
D40*
%TO.C,J2*%
X159870000Y-99680000D03*
D41*
X161140000Y-99680000D03*
%TD*%
D12*
%TO.C,J5*%
X130447500Y-64750000D03*
X141877500Y-64750000D03*
D42*
X131717500Y-71100000D03*
D43*
X132987500Y-73640000D03*
X134257500Y-71100000D03*
X135527500Y-73640000D03*
X136797500Y-71100000D03*
X138067500Y-73640000D03*
X139337500Y-71100000D03*
X140607500Y-73640000D03*
%TD*%
D35*
%TO.C,J6*%
X158000000Y-63100000D03*
D36*
X155460000Y-63100000D03*
X152920000Y-63100000D03*
X150380000Y-63100000D03*
%TD*%
M02*
